# xmcd CD database file
#
# Track frame offsets:
#	150
#	138525
#	198140
#	253692
#
# Disc length: 3969 seconds
#
# Revision: 0
# Processed by: cddbd v1.5.1PL0 Copyright (c) Steve Scherf et al.
# Submitted via: CDex 1.51
#
DISCID=330f7f04
DTITLE=Martial Solal - Nuit étoilée - Concerto pour piano
DYEAR=1990
DGENRE=Jazz
TTITLE0=Concerto pour Claviers et Orchestre - Nuit étoilée
TTITLE1=Concerto pour piano et orchestre - I
TTITLE2=Concerto pour piano et orchestre - II
TTITLE3=Concerto pour piano et orchestre -III
EXTD=YEAR: 1990
EXTT0=
EXTT1=
EXTT2=
EXTT3=
PLAYORDER=
